<?xml version="1.0" encoding="UTF-8" standalone="no"?>
<!DOCTYPE svg PUBLIC "-//W3C//DTD SVG 1.1//EN" "http://www.w3.org/Graphics/SVG/1.1/DTD/svg11.dtd">
<svg width="100%" height="100%" viewBox="0 0 700 700" version="1.1" xmlns="http://www.w3.org/2000/svg" xmlns:xlink="http://www.w3.org/1999/xlink" xml:space="preserve" xmlns:serif="http://www.serif.com/" style="fill-rule:evenodd;clip-rule:evenodd;stroke-linejoin:round;stroke-miterlimit:2;">
    <g transform="matrix(6.9605,0,0,6.9605,-279.61,-149.221)">
        <g id="B">
            <g transform="matrix(0.268352,-0.268352,0.268352,0.268352,36.7802,71.7181)">
                <path d="M192.21,18.4L192.21,181.62C192.21,181.623 192.21,181.627 192.21,181.63C192.21,187.45 187.42,192.24 181.6,192.24L146.7,192.24L146.7,171.85C146.72,171.568 146.73,171.285 146.73,171.002C146.73,164.419 141.313,159.002 134.73,159.002C128.147,159.002 122.73,164.419 122.73,171.002C122.73,171.285 122.74,171.568 122.76,171.85L122.76,192.21L77.24,192.21L77.24,171.85C77.263,171.545 77.275,171.24 77.275,170.934C77.275,164.351 71.858,158.934 65.275,158.934C58.692,158.934 53.275,164.351 53.275,170.934C53.275,171.24 53.287,171.545 53.31,171.85L53.31,192.21L18.41,192.21C12.586,192.205 7.795,187.414 7.79,181.59L7.79,18.4C7.79,12.58 12.58,7.79 18.4,7.79C18.403,7.79 18.407,7.79 18.41,7.79L181.6,7.79C181.603,7.79 181.607,7.79 181.61,7.79C187.425,7.79 192.21,12.575 192.21,18.39C192.21,18.393 192.21,18.397 192.21,18.4Z" style="fill:none;fill-rule:nonzero;stroke:black;stroke-width:10.43px;"/>
            </g>
            <g transform="matrix(1,0,0,1,43.8061,63.0002)">
                <g transform="matrix(47.5137,0,0,47.5137,30.9451,26.1832)">
                    <path d="M0.562,-0.393C0.601,-0.346 0.621,-0.294 0.621,-0.236C0.62,-0.169 0.597,-0.114 0.553,-0.069C0.508,-0.024 0.454,-0.001 0.391,-0.001L0.128,-0.001C0.081,-0.001 0.054,-0.014 0.046,-0.039C0.042,-0.05 0.04,-0.068 0.04,-0.091L0.04,-0.646C0.04,-0.662 0.041,-0.674 0.042,-0.681C0.043,-0.688 0.046,-0.697 0.051,-0.707C0.06,-0.725 0.086,-0.734 0.129,-0.734L0.381,-0.734C0.442,-0.734 0.494,-0.713 0.535,-0.67C0.578,-0.627 0.6,-0.575 0.6,-0.514C0.6,-0.47 0.587,-0.43 0.562,-0.393ZM0.444,-0.246C0.444,-0.262 0.442,-0.275 0.439,-0.284C0.435,-0.293 0.429,-0.3 0.42,-0.304C0.407,-0.309 0.388,-0.312 0.364,-0.312C0.34,-0.312 0.322,-0.317 0.31,-0.326C0.298,-0.335 0.292,-0.355 0.292,-0.384C0.292,-0.413 0.298,-0.432 0.311,-0.441C0.323,-0.45 0.343,-0.455 0.372,-0.455C0.399,-0.455 0.415,-0.462 0.42,-0.476C0.422,-0.483 0.423,-0.495 0.423,-0.512C0.423,-0.529 0.418,-0.54 0.407,-0.547C0.396,-0.554 0.379,-0.557 0.357,-0.557L0.217,-0.557L0.217,-0.178L0.381,-0.178C0.423,-0.178 0.444,-0.201 0.444,-0.246Z" style="fill-rule:nonzero;"/>
                </g>
            </g>
        </g>
    </g>
</svg>
