<?xml version="1.0" standalone="no"?>
<!DOCTYPE svg PUBLIC "-//W3C//DTD SVG 20010904//EN"
 "http://www.w3.org/TR/2001/REC-SVG-20010904/DTD/svg10.dtd">
<svg version="1.0" xmlns="http://www.w3.org/2000/svg"
 width="1080.000000pt" height="1080.000000pt" viewBox="0 0 1080.000000 1080.000000"
 preserveAspectRatio="xMidYMid meet">
<metadata>
Created by potrace 1.14, written by Peter Selinger 2001-2017
</metadata>
<g transform="translate(0.000000,1080.000000) scale(0.100000,-0.100000)"
fill="#000000" stroke="none">
<path d="M5010 10137 c-223 -75 -76 64 -2336 -2199 -1600 -1601 -2024 -2031
-2074 -2102 -54 -75 -70 -110 -107 -220 -43 -130 -43 -132 -43 -277 0 -144 1
-149 41 -274 76 -239 -74 -79 2201 -2351 2262 -2260 2092 -2101 2331 -2180
129 -43 135 -43 267 -44 132 0 138 1 271 44 115 37 148 53 225 106 73 51 459
432 2107 2079 2284 2281 2127 2114 2203 2351 43 132 44 138 44 270 0 134 -1
137 -44 267 -81 240 78 71 -2180 2331 -2265 2267 -2111 2123 -2346 2201 l-125
41 -155 -1 c-154 -1 -156 -1 -280 -42z m380 -2662 c391 -7 552 -24 636 -67 95
-50 122 -66 151 -95 17 -17 45 -39 61 -48 16 -10 37 -31 46 -47 10 -16 27 -39
39 -51 93 -93 185 -311 203 -477 3 -25 7 -50 9 -57 9 -30 -18 -227 -44 -309
-34 -110 -125 -253 -230 -361 -39 -40 -65 -73 -58 -73 7 0 6 -4 -3 -10 -12 -8
-10 -10 10 -10 20 0 22 -2 10 -10 -12 -8 -10 -10 10 -10 20 0 22 -2 10 -10
-12 -8 -10 -10 10 -10 20 0 22 -2 10 -10 -12 -8 -10 -10 8 -10 13 0 20 -4 17
-10 -3 -5 1 -10 9 -10 9 0 16 -4 16 -10 0 -5 7 -10 15 -10 20 0 205 -185 205
-205 0 -8 4 -15 9 -15 5 0 13 -9 16 -20 3 -11 12 -26 18 -32 20 -21 54 -98 83
-183 62 -190 66 -403 11 -601 -91 -323 -281 -541 -587 -671 -208 -89 -200 -88
-850 -87 -598 0 -624 2 -676 47 -20 18 -28 35 -31 73 -5 43 -2 54 21 81 26 31
87 60 104 49 18 -11 1047 -15 1127 -5 51 7 118 26 188 54 251 101 406 275 467
524 32 130 26 307 -15 426 -35 103 -84 185 -154 258 -120 125 -242 163 -493
152 -179 -8 -458 8 -543 30 -92 24 -141 60 -166 122 -20 51 -21 53 -3 105 19
58 50 98 104 132 76 49 198 65 493 66 151 0 237 4 237 10 0 6 9 10 20 10 11 0
20 5 20 10 0 6 9 10 20 10 11 0 20 5 20 10 0 6 9 10 20 10 11 0 20 5 20 10 0
6 8 10 18 10 10 0 24 9 32 20 8 11 18 20 23 20 8 0 30 22 107 108 12 12 18 22
15 22 -3 0 2 12 12 27 9 14 18 31 20 37 1 6 10 31 19 56 28 73 24 236 -9 327
-54 152 -168 304 -279 371 -105 63 -124 64 -837 69 -490 4 -654 2 -687 -7 -58
-17 -99 -63 -113 -130 -8 -36 -11 -488 -11 -1533 0 -1429 0 -1483 -18 -1507
-11 -14 -30 -31 -43 -38 -34 -18 -105 -9 -134 18 -52 48 -50 4 -48 1580 2
1595 0 1539 58 1662 28 60 116 158 141 158 7 0 14 4 14 8 0 9 38 23 110 43 38
10 567 29 620 22 8 -1 175 -5 370 -8z"/>
</g>
</svg>
