<?xml version="1.0" encoding="UTF-8" standalone="no"?><!DOCTYPE svg PUBLIC "-//W3C//DTD SVG 1.1//EN" "http://www.w3.org/Graphics/SVG/1.1/DTD/svg11.dtd"><svg width="100%" height="100%" viewBox="0 0 417 417" version="1.1" xmlns="http://www.w3.org/2000/svg" xmlns:xlink="http://www.w3.org/1999/xlink" xml:space="preserve" xmlns:serif="http://www.serif.com/" style="fill-rule:evenodd;clip-rule:evenodd;stroke-linecap:round;stroke-linejoin:round;stroke-miterlimit:1.5;"><rect id="speaker_icon" x="0" y="0" width="416.667" height="416.667" style="fill:none;"/><g id="speaker_icon1" serif:id="speaker_icon"><g><path d="M31.853,266.963c-7.146,-11.91 29.463,-29.463 29.463,-29.463c-0,0 -14.732,-162.045 29.462,-147.314c44.194,14.731 220.971,191.508 235.703,235.702c14.731,44.195 -147.314,29.463 -147.314,29.463c-0,0 -17.553,36.609 -29.463,29.463c-24.552,-14.731 -103.12,-93.299 -117.851,-117.851Zm39.65,0.839c19.632,23.141 54.22,57.73 77.361,77.361l2.124,-3.323c5.644,-11.77 18.008,-18.792 31.008,-17.611c-0,0 54.548,5.061 95.211,0.102c3.588,-0.438 7.815,-1.32 11.736,-2.263c-3.506,-4.932 -7.912,-10.574 -12.874,-16.83c-19.722,-24.868 -48.476,-56.14 -78.488,-86.152c-30.012,-30.012 -61.285,-58.766 -86.152,-78.488c-6.257,-4.963 -11.898,-9.368 -16.83,-12.874c-0.944,3.921 -1.826,8.148 -2.263,11.736c-4.959,40.663 0.101,95.211 0.101,95.211c1.182,12.999 -5.84,25.364 -17.61,31.007l-3.324,2.124Z" style="fill:#fff;"/><path d="M307.363,234.544c5.596,-21.432 1.462,-42.759 -2.118,-63.69c-2.658,-15.546 -12.373,-25.931 -22.937,-36.495c-18.12,-18.119 -48.091,-27.612 -66.572,-28.693c-11.131,-0.652 -22.484,0.732 -33.614,3.638" style="fill:none;stroke:#fff;stroke-width:31.25px;"/><path d="M368.005,248.991c8.611,-32.981 10.737,-68.185 -2.146,-98.212c-11.629,-27.102 -20.079,-44.187 -37.931,-62.04c-22.764,-22.763 -46.888,-32.848 -81.314,-42.921c-25.055,-7.33 -52.654,-4.019 -78.938,2.844" style="fill:none;stroke:#fff;stroke-width:31.25px;"/></g></g></svg>