<?xml version="1.0" encoding="UTF-8" standalone="no"?>
<!DOCTYPE svg PUBLIC "-//W3C//DTD SVG 1.1//EN" "http://www.w3.org/Graphics/SVG/1.1/DTD/svg11.dtd">
<svg width="100%" height="100%" viewBox="0 0 200 200" version="1.1" xmlns="http://www.w3.org/2000/svg" xmlns:xlink="http://www.w3.org/1999/xlink" xml:space="preserve" xmlns:serif="http://www.serif.com/" style="fill-rule:evenodd;clip-rule:evenodd;stroke-linejoin:round;stroke-miterlimit:2;">
    <g transform="matrix(1,0,0,1,-218.378,0)">
        <g transform="matrix(0.0628433,0,0,0.310136,15.2361,0)">
            <rect id="start_icon" x="3232.52" y="0" width="3182.52" height="644.878" style="fill:none;"/>
            <g id="start_icon1" serif:id="start_icon">
                <g transform="matrix(70.9418,0,0,18.2228,-287607,-1317.61)">
                    <path d="M4116.28,75.336C4116.28,75.336 4122.37,78.661 4125.56,79.996C4130.54,82.076 4136.41,85.41 4136.41,85.41C4138.27,86.471 4139.38,88.17 4139.38,89.98C4139.39,91.791 4138.3,93.496 4136.45,94.567C4136.45,94.567 4132.78,96.682 4129.23,98.171C4125.95,99.547 4116.19,104.708 4116.19,104.708C4113.96,105.885 4111.08,105.98 4108.73,104.953C4106.38,103.926 4104.95,101.95 4105.03,99.831C4105.03,99.831 4105.28,93.502 4105.04,90.337C4104.78,86.845 4105.03,79.832 4105.03,79.832C4105.11,77.76 4106.62,75.887 4108.96,74.949C4111.31,74.012 4114.11,74.161 4116.28,75.336ZM4112.2,80C4112.2,80 4111.95,86.676 4112.2,90C4112.46,93.333 4112.2,100 4112.2,100C4112.2,100 4122.43,94.612 4125.86,93.171C4128.99,91.862 4132.2,90 4132.2,90C4132.2,90 4126.8,86.919 4122.2,85C4118.77,83.564 4112.2,80 4112.2,80Z" style="fill:white;"/>
                </g>
            </g>
        </g>
    </g>
</svg>
