<?xml version="1.0" encoding="UTF-8" standalone="no"?><!DOCTYPE svg PUBLIC "-//W3C//DTD SVG 1.1//EN" "http://www.w3.org/Graphics/SVG/1.1/DTD/svg11.dtd"><svg width="100%" height="100%" viewBox="0 0 419 419" version="1.1" xmlns="http://www.w3.org/2000/svg" xmlns:xlink="http://www.w3.org/1999/xlink" xml:space="preserve" xmlns:serif="http://www.serif.com/" style="fill-rule:evenodd;clip-rule:evenodd;stroke-linejoin:round;stroke-miterlimit:2;"><rect id="stop_icon" x="1.064" y="0.816" width="416.667" height="416.667" style="fill:none;"/><g id="stop_icon1" serif:id="stop_icon"><path d="M161.614,95.086c0,-26.95 -5.316,-48.83 -11.864,-48.83c-0,0 -31.948,5.613 -45.722,0c-3.2,-1.304 -9.647,0 -9.647,0c-6.548,0 -11.865,21.88 -11.865,48.83c0,0 -0.045,73.581 -0.422,96.316c-0.909,54.817 0.422,131.558 0.422,131.558c0,26.951 5.317,48.831 11.865,48.831c-0,-0 32.074,-1.7 41.293,-0c10.147,1.87 14.076,-0 14.076,-0c6.548,-0 11.864,-21.88 11.864,-48.831c0,0 -0.61,-110.442 0,-148.338c0.91,-56.446 0,-79.536 0,-79.536Z" style="fill:#fff;"/><path d="M161.614,95.086c0,0 0.91,23.09 0,79.536c-0.61,37.896 0,148.338 0,148.338c0,26.951 -5.316,48.831 -11.864,48.831c-0,-0 -3.929,1.87 -14.076,-0c-9.219,-1.7 -41.293,-0 -41.293,-0c-6.548,-0 -11.865,-21.88 -11.865,-48.831c0,0 -1.331,-76.741 -0.422,-131.558c0.377,-22.735 0.422,-96.316 0.422,-96.316c0,-26.95 5.317,-48.83 11.865,-48.83c-0,0 6.447,-1.304 9.647,0c13.774,5.613 45.722,0 45.722,0c6.548,0 11.864,21.88 11.864,48.83Zm-46.748,-15.295c-0.611,4.921 -1.1,10.393 -1.1,15.295l0,0.019c0,0 -0.047,73.963 -0.426,96.815c-0.902,54.375 0.422,130.498 0.422,130.498c0.003,0.181 0.004,0.362 0.004,0.542c0,5.507 0.617,11.733 1.331,17.089c4.703,-0.042 9.558,-0.029 13.925,0.087c0.715,-5.352 1.337,-11.586 1.342,-17.106c-0.02,-3.796 -0.598,-111.515 0.004,-148.911c0.89,-55.217 0.021,-77.803 0.021,-77.803c-0.017,-0.41 -0.025,-0.82 -0.025,-1.23c0,-4.895 -0.487,-10.358 -1.097,-15.273c-3.269,0.156 -6.618,0.226 -9.897,0.162c-1.516,-0.029 -3.02,-0.091 -4.504,-0.184Z" style="fill:#fff;"/><path d="M336.614,95.086c0,-26.95 -5.316,-48.83 -11.864,-48.83c-0,0 -31.948,5.613 -45.722,0c-3.2,-1.304 -9.647,0 -9.647,0c-6.548,0 -11.865,21.88 -11.865,48.83c0,0 -0.045,73.581 -0.422,96.316c-0.909,54.817 0.422,131.558 0.422,131.558c0,26.951 5.317,48.831 11.865,48.831c-0,-0 32.074,-1.7 41.293,-0c10.147,1.87 14.076,-0 14.076,-0c6.548,-0 11.864,-21.88 11.864,-48.831c0,0 -0.61,-110.442 0,-148.338c0.91,-56.446 0,-79.536 0,-79.536Z" style="fill:#fff;"/><path d="M336.614,95.086c0,0 0.91,23.09 0,79.536c-0.61,37.896 0,148.338 0,148.338c0,26.951 -5.316,48.831 -11.864,48.831c-0,-0 -3.929,1.87 -14.076,-0c-9.219,-1.7 -41.293,-0 -41.293,-0c-6.548,-0 -11.865,-21.88 -11.865,-48.831c0,0 -1.331,-76.741 -0.422,-131.558c0.377,-22.735 0.422,-96.316 0.422,-96.316c0,-26.95 5.317,-48.83 11.865,-48.83c-0,0 6.447,-1.304 9.647,0c13.774,5.613 45.722,0 45.722,0c6.548,0 11.864,21.88 11.864,48.83Zm-46.748,-15.295c-0.611,4.921 -1.1,10.393 -1.1,15.295l0,0.019c0,0 -0.047,73.963 -0.426,96.815c-0.902,54.375 0.422,130.498 0.422,130.498c0.003,0.181 0.004,0.362 0.004,0.542c0,5.507 0.617,11.733 1.331,17.089c4.703,-0.042 9.558,-0.029 13.925,0.087c0.715,-5.352 1.337,-11.586 1.342,-17.106c-0.02,-3.796 -0.598,-111.515 0.004,-148.911c0.89,-55.217 0.021,-77.803 0.021,-77.803c-0.017,-0.41 -0.025,-0.82 -0.025,-1.23c0,-4.895 -0.487,-10.358 -1.097,-15.273c-3.269,0.156 -6.618,0.226 -9.897,0.162c-1.516,-0.029 -3.02,-0.091 -4.504,-0.184Z" style="fill:#fff;"/></g></svg>